<svg width="40" height="40" viewBox="0 0 40 40" fill="none" xmlns="http://www.w3.org/2000/svg">
<rect width="40" height="40" rx="12" fill="#EB5757"/>
<path d="M20 12.25C15.7188 12.25 12.25 15.7188 12.25 20C12.25 24.2812 15.7188 27.75 20 27.75C24.2812 27.75 27.75 24.2812 27.75 20C27.75 15.7188 24.2812 12.25 20 12.25ZM23.7812 22.0625C23.9375 22.1875 23.9375 22.4375 23.7812 22.5938L22.5625 23.8125C22.4062 23.9688 22.1562 23.9688 22.0312 23.8125L20 21.75L17.9375 23.8125C17.8125 23.9688 17.5625 23.9688 17.4062 23.8125L16.1875 22.5625C16.0312 22.4375 16.0312 22.1875 16.1875 22.0312L18.25 20L16.1875 17.9688C16.0312 17.8438 16.0312 17.5938 16.1875 17.4375L17.4375 16.2188C17.5625 16.0625 17.8125 16.0625 17.9688 16.2188L20 18.25L22.0312 16.2188C22.1562 16.0625 22.4062 16.0625 22.5625 16.2188L23.7812 17.4375C23.9375 17.5938 23.9375 17.8438 23.7812 17.9688L21.75 20L23.7812 22.0625Z" fill="white"/>
</svg>
