<svg width="40" height="40" viewBox="0 0 40 40" fill="none" xmlns="http://www.w3.org/2000/svg">
<circle cx="20" cy="20" r="20" fill="#1F78FF"/>
<path d="M7.9858 28.8068V24.2784H8.7642C9.02557 24.0701 9.26989 23.7765 9.49716 23.3977C9.72443 23.0189 9.91761 22.5 10.0767 21.8409C10.2358 21.1818 10.3456 20.3295 10.4062 19.2841L10.7131 14.3636H18.1506V24.2784H19.446V28.7955H17.4233V26H10.0085V28.8068H7.9858ZM11.2188 24.2784H16.1278V16.1307H12.6108L12.429 19.2841C12.3797 20.0758 12.3002 20.7841 12.1903 21.4091C12.0805 22.0341 11.9422 22.5852 11.7756 23.0625C11.6089 23.536 11.4233 23.9413 11.2188 24.2784ZM31.5611 20.1818C31.5611 21.4356 31.3262 22.5095 30.8565 23.4034C30.3906 24.2936 29.7543 24.9754 28.9474 25.4489C28.1444 25.9223 27.2334 26.1591 26.2145 26.1591C25.1955 26.1591 24.2827 25.9223 23.4759 25.4489C22.6728 24.9716 22.0365 24.2879 21.5668 23.3977C21.1009 22.5038 20.8679 21.4318 20.8679 20.1818C20.8679 18.928 21.1009 17.8561 21.5668 16.9659C22.0365 16.072 22.6728 15.3883 23.4759 14.9148C24.2827 14.4413 25.1955 14.2045 26.2145 14.2045C27.2334 14.2045 28.1444 14.4413 28.9474 14.9148C29.7543 15.3883 30.3906 16.072 30.8565 16.9659C31.3262 17.8561 31.5611 18.928 31.5611 20.1818ZM29.4418 20.1818C29.4418 19.2992 29.3035 18.5549 29.027 17.9489C28.7543 17.339 28.3755 16.8788 27.8906 16.5682C27.4058 16.2538 26.8471 16.0966 26.2145 16.0966C25.5819 16.0966 25.0232 16.2538 24.5384 16.5682C24.0535 16.8788 23.6728 17.339 23.3963 17.9489C23.1236 18.5549 22.9872 19.2992 22.9872 20.1818C22.9872 21.0644 23.1236 21.8106 23.3963 22.4205C23.6728 23.0265 24.0535 23.4867 24.5384 23.8011C25.0232 24.1117 25.5819 24.267 26.2145 24.267C26.8471 24.267 27.4058 24.1117 27.8906 23.8011C28.3755 23.4867 28.7543 23.0265 29.027 22.4205C29.3035 21.8106 29.4418 21.0644 29.4418 20.1818Z" fill="white"/>
</svg>
